<svg width="442" height="57" viewBox="0 0 442 57" fill="none" xmlns="http://www.w3.org/2000/svg">
<g filter="url(#filter0_d_15_134)">
<path d="M45.106 33.536C45.106 33.8347 45.0847 34.1547 45.042 34.496C44.9993 34.7947 44.9353 35.1147 44.85 35.456C44.5513 37.3333 44.2953 39.2533 44.082 41.216C43.9113 43.136 43.6553 45.0347 43.314 46.912C43.314 47.1253 43.2287 47.3173 43.058 47.488C42.7593 47.744 42.3967 47.872 41.97 47.872C39.8793 47.872 37.7887 47.8507 35.698 47.808C33.6073 47.7653 31.4953 47.744 29.362 47.744C26.7593 47.744 24.1567 47.744 21.554 47.744C18.994 47.744 16.4127 47.7867 13.81 47.872C12.3593 47.9147 10.93 47.9573 9.522 48C8.114 48.0853 6.68467 48.128 5.234 48.128C4.722 48.128 4.466 47.8293 4.466 47.232C4.466 46.6347 4.76467 46.336 5.362 46.336C5.78867 46.336 6.194 46.3573 6.578 46.4C7.00467 46.4 7.41 46.4 7.794 46.4C8.39133 46.4 8.98867 46.2933 9.586 46.08C10.226 45.824 10.546 45.3547 10.546 44.672V6.848C10.546 5.99466 10.5247 5.29066 10.482 4.736C10.4393 4.13866 10.226 3.69066 9.842 3.392C9.50067 3.09333 8.83933 2.944 7.858 2.944C7.43133 2.944 7.026 2.96533 6.642 3.008C6.258 3.05067 5.85267 3.072 5.426 3.072C5.08467 3.072 4.87133 2.98667 4.786 2.816C4.70067 2.60266 4.658 2.34666 4.658 2.048C4.658 1.792 4.67933 1.57866 4.722 1.408C4.80733 1.19466 4.99933 1.088 5.298 1.088C6.706 1.088 8.09267 1.10933 9.458 1.152C10.866 1.19467 12.274 1.216 13.682 1.216C15.3033 1.216 16.946 1.19467 18.61 1.152C20.274 1.10933 21.9167 1.088 23.538 1.088C23.8367 1.088 24.0073 1.19466 24.05 1.408C24.1353 1.57866 24.178 1.77066 24.178 1.984C24.178 2.15466 24.1353 2.368 24.05 2.624C24.0073 2.83733 23.8367 2.944 23.538 2.944C22.9833 2.944 22.4287 2.944 21.874 2.944C21.362 2.90133 20.8287 2.88 20.274 2.88C19.5913 2.88 18.9087 2.96533 18.226 3.136C17.5433 3.30666 17.202 3.84 17.202 4.736C17.202 6.22933 17.1807 7.72267 17.138 9.216C17.138 10.7093 17.138 12.2027 17.138 13.696V32.576C17.138 34.4533 17.138 36.352 17.138 38.272C17.1807 40.192 17.202 42.0907 17.202 43.968C17.202 44.6933 17.5007 45.2267 18.098 45.568C18.6953 45.8667 19.378 46.0373 20.146 46.08C20.914 46.1227 21.554 46.144 22.066 46.144C23.9433 46.144 25.8207 46.1013 27.698 46.016C29.5753 45.9307 31.4313 45.7387 33.266 45.44C34.4607 45.2267 35.5913 44.8213 36.658 44.224C37.7673 43.584 38.7273 42.7947 39.538 41.856C40.6047 40.6187 41.4153 39.296 41.97 37.888C42.5247 36.4373 43.0793 34.9867 43.634 33.536C43.762 33.2373 43.9113 33.0667 44.082 33.024C44.2527 32.9813 44.466 32.96 44.722 32.96C44.85 32.96 44.9353 33.0453 44.978 33.216C45.0633 33.344 45.106 33.4507 45.106 33.536ZM93.677 2.112C93.677 2.53867 93.5703 2.79467 93.357 2.88C93.1437 2.96533 92.8663 3.008 92.525 3.008C92.2263 3.008 91.9277 3.008 91.629 3.008C91.3303 2.96533 91.0317 2.944 90.733 2.944C90.1357 2.944 89.5383 3.05066 88.941 3.264C88.3863 3.43466 88.0663 3.88266 87.981 4.608C87.9383 5.33333 87.917 6.08 87.917 6.848C87.917 7.616 87.917 8.384 87.917 9.152C87.917 12.6507 87.9383 16.1707 87.981 19.712C88.0663 23.2107 88.109 26.7307 88.109 30.272C88.109 33.8987 87.5757 37.0773 86.509 39.808C85.4423 42.496 83.7143 44.5867 81.325 46.08C78.9783 47.5733 75.8423 48.32 71.917 48.32C66.2423 48.32 61.7623 46.9547 58.477 44.224C55.2343 41.4507 53.613 37.12 53.613 31.232V5.76C53.613 5.54667 53.613 5.33333 53.613 5.12C53.6557 4.864 53.6557 4.65066 53.613 4.48C53.5703 3.66933 53.1437 3.17866 52.333 3.008C51.565 2.83733 50.861 2.752 50.221 2.752C49.9223 2.752 49.6023 2.77333 49.261 2.816C48.9623 2.816 48.6423 2.816 48.301 2.816C48.173 2.816 48.0237 2.73066 47.853 2.56C47.8103 2.38933 47.789 2.15466 47.789 1.856C47.789 1.38666 48.0663 1.152 48.621 1.152C49.0903 1.152 49.5383 1.17333 49.965 1.216C50.3917 1.216 50.8183 1.23733 51.245 1.28C52.2263 1.32266 53.1863 1.36533 54.125 1.408C55.0637 1.408 56.0023 1.408 56.941 1.408C58.4343 1.408 59.9063 1.36533 61.357 1.28C62.8503 1.19466 64.3437 1.152 65.837 1.152C66.3917 1.152 66.669 1.408 66.669 1.92C66.669 2.09067 66.6263 2.304 66.541 2.56C66.4557 2.77333 66.285 2.88 66.029 2.88C65.4743 2.88 64.941 2.88 64.429 2.88C63.917 2.83733 63.3837 2.816 62.829 2.816C62.3597 2.816 61.8263 2.944 61.229 3.2C60.6317 3.456 60.2903 3.86133 60.205 4.416C60.077 5.09866 60.0343 5.84533 60.077 6.656C60.1197 7.424 60.141 8.17067 60.141 8.896C60.141 12.7787 60.1197 16.6613 60.077 20.544C60.0343 24.4267 60.013 28.3093 60.013 32.192C60.013 35.264 60.333 37.824 60.973 39.872C61.613 41.92 62.8077 43.4773 64.557 44.544C66.3063 45.568 68.8663 46.08 72.237 46.08C75.5223 46.08 78.125 45.3973 80.045 44.032C82.0077 42.6667 83.4157 40.8107 84.269 38.464C85.1223 36.1173 85.549 33.4507 85.549 30.464C85.549 26.1547 85.5277 21.8453 85.485 17.536C85.485 13.2267 85.485 8.91733 85.485 4.608C85.485 4.01066 85.165 3.584 84.525 3.328C83.885 3.072 83.309 2.944 82.797 2.944C82.285 2.944 81.773 2.96533 81.261 3.008C80.749 3.05067 80.2157 3.072 79.661 3.072C79.405 3.072 79.277 2.88 79.277 2.496C79.277 2.15466 79.277 1.856 79.277 1.6C79.3197 1.344 79.5543 1.216 79.981 1.216C80.5783 1.216 81.197 1.25867 81.837 1.344C82.477 1.38666 83.0957 1.408 83.693 1.408C85.8263 1.408 87.9383 1.344 90.029 1.216C90.5837 1.216 91.117 1.19467 91.629 1.152C92.1837 1.10933 92.717 1.088 93.229 1.088C93.485 1.088 93.613 1.216 93.613 1.472C93.6557 1.728 93.677 1.94133 93.677 2.112ZM143.46 2.176C143.46 2.304 143.417 2.496 143.332 2.752C143.247 2.96533 143.097 3.072 142.884 3.072C142.543 3.072 142.201 3.072 141.86 3.072C141.519 3.02933 141.177 3.008 140.836 3.008C139.684 3.008 138.873 3.136 138.404 3.392C137.977 3.60533 137.721 3.98933 137.636 4.544C137.593 5.09867 137.572 5.86667 137.572 6.848V47.232C137.572 47.616 137.423 47.808 137.124 47.808L134.244 47.872C134.073 46.9333 133.753 45.9947 133.284 45.056C132.857 44.1173 132.345 43.264 131.748 42.496C127.14 36.4373 122.532 30.4213 117.924 24.448C113.316 18.432 108.772 12.3733 104.292 6.272V44.48C104.292 45.0773 104.505 45.504 104.932 45.76C105.401 45.9733 105.913 46.1013 106.468 46.144C107.065 46.144 107.577 46.144 108.004 46.144C108.345 46.144 108.665 46.144 108.964 46.144C109.305 46.1013 109.647 46.08 109.988 46.08C110.372 46.08 110.564 46.3147 110.564 46.784C110.564 47.1253 110.521 47.424 110.436 47.68C110.393 47.936 110.137 48.064 109.668 48.064C109.284 48.064 108.879 48.0427 108.452 48C108.068 47.9147 107.684 47.8507 107.3 47.808C106.66 47.7227 105.999 47.7013 105.316 47.744C104.633 47.744 103.972 47.744 103.332 47.744C102.137 47.744 100.964 47.808 99.812 47.936C98.7027 48.0213 97.5507 48.064 96.356 48.064C96.0573 48.064 95.908 47.872 95.908 47.488C95.908 46.848 95.972 46.464 96.1 46.336C96.228 46.208 96.5907 46.144 97.188 46.144C97.5293 46.144 97.8493 46.1653 98.148 46.208C98.4893 46.208 98.8093 46.208 99.108 46.208C99.7907 46.208 100.388 46.1227 100.9 45.952C101.455 45.7813 101.753 45.2907 101.796 44.48C101.881 42.432 101.903 40.3627 101.86 38.272C101.817 36.1813 101.796 34.112 101.796 32.064C101.796 27.584 101.817 23.104 101.86 18.624C101.945 14.144 101.988 9.64267 101.988 5.12C101.988 4.352 101.775 3.81866 101.348 3.52C100.964 3.17867 100.473 2.98667 99.876 2.944C99.2787 2.90133 98.6813 2.88 98.084 2.88C97.8707 2.88 97.636 2.90133 97.38 2.944C97.124 2.944 96.8893 2.944 96.676 2.944C96.1213 2.944 95.844 2.73066 95.844 2.304C95.844 2.00533 95.8653 1.74933 95.908 1.536C95.9933 1.28 96.228 1.152 96.612 1.152C97.7213 1.152 98.8307 1.19466 99.94 1.28C101.049 1.32266 102.159 1.344 103.268 1.344C104.036 1.344 104.804 1.344 105.572 1.344C106.383 1.30133 107.172 1.28 107.94 1.28C109.519 3.41333 111.14 5.504 112.804 7.552C114.468 9.6 116.132 11.648 117.796 13.696C120.697 17.2373 123.599 20.7787 126.5 24.32C129.401 27.8187 132.303 31.3387 135.204 34.88V4.672C135.204 4.07466 134.884 3.648 134.244 3.392C133.604 3.136 133.049 3.008 132.58 3.008C132.025 3.008 131.492 3.02933 130.98 3.072C130.468 3.11466 129.935 3.136 129.38 3.136C129.081 3.136 128.932 2.92266 128.932 2.496C128.932 2.368 128.932 2.24 128.932 2.112C128.932 1.94133 128.953 1.81333 128.996 1.728C128.996 1.344 129.231 1.152 129.7 1.152C130.297 1.152 130.916 1.19466 131.556 1.28C132.196 1.32266 132.815 1.344 133.412 1.344C135.033 1.344 136.633 1.32266 138.212 1.28C139.791 1.23733 141.369 1.152 142.948 1.024C143.204 1.19467 143.353 1.36533 143.396 1.536C143.439 1.664 143.46 1.87733 143.46 2.176ZM175.158 28.992C173.792 25.152 172.427 21.312 171.062 17.472C169.696 13.5893 168.331 9.728 166.966 5.888C165.643 9.728 164.299 13.568 162.934 17.408C161.568 21.248 160.224 25.1093 158.902 28.992H175.158ZM193.206 47.04C193.206 47.296 193.163 47.5307 193.078 47.744C193.035 47.9147 192.886 48 192.63 48C192.331 48 191.584 47.9787 190.39 47.936C189.238 47.8933 188.235 47.872 187.382 47.872C186.059 47.872 184.736 47.872 183.414 47.872C182.134 47.872 180.832 47.9147 179.51 48C178.827 48.0427 178.123 48.064 177.398 48.064C176.715 48.1067 176.032 48.128 175.35 48.128C175.136 48.128 174.987 48.064 174.902 47.936C174.859 47.7653 174.838 47.5947 174.838 47.424L174.902 46.912C174.902 46.784 174.944 46.656 175.03 46.528C175.115 46.3573 175.243 46.272 175.414 46.272H178.55C178.934 46.272 179.36 46.1867 179.83 46.016C180.342 45.8453 180.597 45.5253 180.597 45.056C180.597 44.928 180.448 44.4373 180.15 43.584C179.851 42.688 179.488 41.6213 179.062 40.384C178.635 39.104 178.187 37.824 177.718 36.544C177.248 35.264 176.843 34.1333 176.502 33.152C176.16 32.128 175.926 31.4667 175.798 31.168H158.326C158.198 31.552 157.942 32.256 157.558 33.28C157.174 34.2613 156.747 35.392 156.278 36.672C155.851 37.952 155.403 39.2107 154.934 40.448C154.507 41.6853 154.144 42.752 153.845 43.648C153.59 44.5013 153.462 45.0347 153.462 45.248C153.462 45.8453 153.782 46.2293 154.422 46.4C155.062 46.5707 155.595 46.656 156.022 46.656C156.448 46.656 156.832 46.656 157.174 46.656C157.515 46.656 157.792 46.6347 158.006 46.592C158.091 46.592 158.24 46.592 158.454 46.592C158.71 46.5493 158.859 46.528 158.902 46.528C159.158 46.528 159.307 46.6773 159.35 46.976C159.435 47.2747 159.456 47.5093 159.414 47.68C159.371 47.8507 159.264 47.9573 159.094 48C158.966 48 158.816 48 158.646 48C157.408 48 156.15 47.9787 154.87 47.936C153.59 47.8933 152.331 47.872 151.094 47.872C150.155 47.872 149.238 47.8933 148.342 47.936C147.446 47.9787 146.528 48 145.59 48C145.206 48 145.014 47.7867 145.014 47.36C145.014 46.7627 145.312 46.464 145.91 46.464C146.123 46.464 146.379 46.4853 146.678 46.528C146.976 46.528 147.296 46.528 147.638 46.528C148.107 46.528 148.576 46.4 149.046 46.144C149.558 45.8453 149.984 45.3333 150.326 44.608C150.539 44.224 150.966 43.2 151.606 41.536C152.246 39.872 153.035 37.8027 153.974 35.328C154.912 32.8107 155.894 30.1227 156.918 27.264C157.984 24.3627 159.03 21.4827 160.054 18.624C161.078 15.7653 161.995 13.12 162.806 10.688C163.659 8.256 164.342 6.25066 164.854 4.672C165.366 3.05066 165.622 2.09066 165.622 1.792C165.622 1.70666 165.558 1.6 165.43 1.472C165.302 1.30133 165.238 1.19467 165.238 1.152C165.238 0.98133 165.302 0.874663 165.43 0.831997C165.856 0.746665 166.304 0.682666 166.774 0.639999C167.243 0.597331 167.691 0.554663 168.118 0.511997C168.672 0.426665 169.227 0.362665 169.782 0.319996C170.336 0.234664 170.891 0.170664 171.446 0.127998L188.022 44.928C188.192 45.3547 188.512 45.696 188.982 45.952C189.494 46.1653 189.963 46.272 190.39 46.272C190.774 46.272 191.158 46.272 191.542 46.272C191.968 46.2293 192.395 46.208 192.822 46.208C192.992 46.208 193.099 46.3147 193.142 46.528C193.184 46.7413 193.206 46.912 193.206 47.04ZM225.424 12.48C225.424 8.72533 224.443 6.16533 222.48 4.8C220.56 3.392 217.851 2.688 214.352 2.688H212.24C211.813 2.688 211.28 2.73067 210.64 2.816C210.043 2.85866 209.488 3.008 208.976 3.264C208.507 3.47733 208.272 3.88267 208.272 4.48V22.272C208.741 22.4427 209.275 22.5493 209.872 22.592C210.469 22.6347 211.024 22.656 211.536 22.656C213.243 22.656 214.907 22.5067 216.528 22.208C218.192 21.9093 219.685 21.3973 221.008 20.672C222.373 19.9467 223.44 18.9227 224.208 17.6C225.019 16.2773 225.424 14.5707 225.424 12.48ZM239.44 46.976C239.44 47.2747 239.141 47.5093 238.544 47.68C237.947 47.8507 237.243 47.9573 236.432 48C235.621 48.0853 234.853 48.128 234.128 48.128C233.445 48.128 232.976 48.128 232.72 48.128C231.013 48.128 229.648 47.9573 228.624 47.616C227.6 47.232 226.597 46.272 225.616 44.736C223.525 41.3653 221.499 37.952 219.536 34.496C217.616 31.04 215.696 27.5627 213.776 24.064L208.272 24.256V44.544C208.272 45.184 208.528 45.6107 209.04 45.824C209.552 46.0373 210.064 46.144 210.576 46.144C211.173 46.144 211.749 46.1227 212.304 46.08C212.859 46.0373 213.413 46.016 213.968 46.016C214.267 46.016 214.437 46.144 214.48 46.4C214.565 46.656 214.608 46.8907 214.608 47.104C214.608 47.4453 214.501 47.68 214.288 47.808C214.117 47.8933 213.883 47.936 213.584 47.936C211.707 47.936 209.808 47.9147 207.888 47.872C205.968 47.7867 204.069 47.744 202.192 47.744C201.168 47.744 200.144 47.7867 199.12 47.872C198.139 47.9147 197.136 47.936 196.112 47.936C195.856 47.936 195.685 47.8293 195.6 47.616C195.557 47.36 195.536 47.1467 195.536 46.976C195.536 46.4213 195.771 46.144 196.24 46.144C196.624 46.144 196.987 46.1653 197.328 46.208C197.712 46.208 198.075 46.208 198.416 46.208C199.056 46.208 199.739 46.144 200.464 46.016C201.232 45.8453 201.659 45.3547 201.744 44.544C201.829 43.4773 201.851 42.24 201.808 40.832C201.808 39.3813 201.808 38.1227 201.808 37.056C201.808 35.648 201.808 34.24 201.808 32.832C201.808 31.3813 201.808 29.952 201.808 28.544C201.808 25.6 201.808 22.656 201.808 19.712C201.851 16.768 201.872 13.824 201.872 10.88C201.872 9.81333 201.872 8.74666 201.872 7.68C201.872 6.57066 201.829 5.504 201.744 4.48C201.659 3.62666 201.211 3.15733 200.4 3.072C199.632 2.944 198.928 2.88 198.288 2.88C198.032 2.88 197.776 2.90133 197.52 2.944C197.264 2.944 197.008 2.944 196.752 2.944C196.112 2.944 195.792 2.58133 195.792 1.856C195.792 1.38666 196.005 1.152 196.432 1.152C197.883 1.152 199.312 1.19466 200.72 1.28C202.171 1.36533 203.621 1.408 205.072 1.408C207.077 1.408 209.061 1.32266 211.024 1.152C212.987 0.98133 214.949 0.895996 216.912 0.895996C218.533 0.895996 220.24 1.06666 222.032 1.408C223.867 1.74933 225.573 2.304 227.152 3.072C228.731 3.84 230.011 4.90667 230.992 6.272C232.016 7.59466 232.528 9.28 232.528 11.328C232.528 13.888 231.803 16.1067 230.352 17.984C228.944 19.8187 227.109 21.248 224.848 22.272C224.037 22.656 223.205 22.9547 222.352 23.168C221.499 23.3387 220.645 23.5093 219.792 23.68C221.755 27.008 223.803 30.2933 225.936 33.536C228.112 36.7787 230.309 39.9787 232.528 43.136C233.168 44.032 233.829 44.7573 234.512 45.312C235.237 45.824 236.133 46.1867 237.2 46.4C237.456 46.4427 237.883 46.464 238.48 46.464C239.12 46.464 239.44 46.6347 239.44 46.976ZM286.674 12.48C286.674 8.72533 285.693 6.16533 283.73 4.8C281.81 3.392 279.101 2.688 275.602 2.688H273.49C273.063 2.688 272.53 2.73067 271.89 2.816C271.293 2.85866 270.738 3.008 270.226 3.264C269.757 3.47733 269.522 3.88267 269.522 4.48V22.272C269.991 22.4427 270.525 22.5493 271.122 22.592C271.719 22.6347 272.274 22.656 272.786 22.656C274.493 22.656 276.157 22.5067 277.778 22.208C279.442 21.9093 280.935 21.3973 282.258 20.672C283.623 19.9467 284.69 18.9227 285.458 17.6C286.269 16.2773 286.674 14.5707 286.674 12.48ZM300.69 46.976C300.69 47.2747 300.391 47.5093 299.794 47.68C299.197 47.8507 298.493 47.9573 297.682 48C296.871 48.0853 296.103 48.128 295.378 48.128C294.695 48.128 294.226 48.128 293.97 48.128C292.263 48.128 290.898 47.9573 289.874 47.616C288.85 47.232 287.847 46.272 286.866 44.736C284.775 41.3653 282.749 37.952 280.786 34.496C278.866 31.04 276.946 27.5627 275.026 24.064L269.522 24.256V44.544C269.522 45.184 269.778 45.6107 270.29 45.824C270.802 46.0373 271.314 46.144 271.826 46.144C272.423 46.144 272.999 46.1227 273.554 46.08C274.109 46.0373 274.663 46.016 275.218 46.016C275.517 46.016 275.687 46.144 275.73 46.4C275.815 46.656 275.858 46.8907 275.858 47.104C275.858 47.4453 275.751 47.68 275.538 47.808C275.367 47.8933 275.133 47.936 274.834 47.936C272.957 47.936 271.058 47.9147 269.138 47.872C267.218 47.7867 265.319 47.744 263.442 47.744C262.418 47.744 261.394 47.7867 260.37 47.872C259.389 47.9147 258.386 47.936 257.362 47.936C257.106 47.936 256.935 47.8293 256.85 47.616C256.807 47.36 256.786 47.1467 256.786 46.976C256.786 46.4213 257.021 46.144 257.49 46.144C257.874 46.144 258.237 46.1653 258.578 46.208C258.962 46.208 259.325 46.208 259.666 46.208C260.306 46.208 260.989 46.144 261.714 46.016C262.482 45.8453 262.909 45.3547 262.994 44.544C263.079 43.4773 263.101 42.24 263.058 40.832C263.058 39.3813 263.058 38.1227 263.058 37.056C263.058 35.648 263.058 34.24 263.058 32.832C263.058 31.3813 263.058 29.952 263.058 28.544C263.058 25.6 263.058 22.656 263.058 19.712C263.101 16.768 263.122 13.824 263.122 10.88C263.122 9.81333 263.122 8.74666 263.122 7.68C263.122 6.57066 263.079 5.504 262.994 4.48C262.909 3.62666 262.461 3.15733 261.65 3.072C260.882 2.944 260.178 2.88 259.538 2.88C259.282 2.88 259.026 2.90133 258.77 2.944C258.514 2.944 258.258 2.944 258.002 2.944C257.362 2.944 257.042 2.58133 257.042 1.856C257.042 1.38666 257.255 1.152 257.682 1.152C259.133 1.152 260.562 1.19466 261.97 1.28C263.421 1.36533 264.871 1.408 266.322 1.408C268.327 1.408 270.311 1.32266 272.274 1.152C274.237 0.98133 276.199 0.895996 278.162 0.895996C279.783 0.895996 281.49 1.06666 283.282 1.408C285.117 1.74933 286.823 2.304 288.402 3.072C289.981 3.84 291.261 4.90667 292.242 6.272C293.266 7.59466 293.778 9.28 293.778 11.328C293.778 13.888 293.053 16.1067 291.602 17.984C290.194 19.8187 288.359 21.248 286.098 22.272C285.287 22.656 284.455 22.9547 283.602 23.168C282.749 23.3387 281.895 23.5093 281.042 23.68C283.005 27.008 285.053 30.2933 287.186 33.536C289.362 36.7787 291.559 39.9787 293.778 43.136C294.418 44.032 295.079 44.7573 295.762 45.312C296.487 45.824 297.383 46.1867 298.45 46.4C298.706 46.4427 299.133 46.464 299.73 46.464C300.37 46.464 300.69 46.6347 300.69 46.976ZM342.42 24.448C342.42 21.9733 342.143 19.456 341.588 16.896C341.076 14.336 340.223 11.968 339.028 9.792C337.833 7.616 336.233 5.86667 334.228 4.544C332.223 3.17867 329.748 2.496 326.804 2.496C323.945 2.496 321.513 3.2 319.508 4.608C317.503 6.016 315.881 7.85066 314.644 10.112C313.407 12.3307 312.489 14.7413 311.892 17.344C311.337 19.904 311.06 22.3787 311.06 24.768C311.06 27.2853 311.316 29.824 311.828 32.384C312.34 34.9013 313.193 37.2267 314.388 39.36C315.583 41.4507 317.183 43.136 319.188 44.416C321.236 45.696 323.775 46.336 326.804 46.336C329.833 46.336 332.351 45.6747 334.356 44.352C336.361 43.0293 337.94 41.3013 339.092 39.168C340.287 36.992 341.14 34.624 341.652 32.064C342.164 29.504 342.42 26.9653 342.42 24.448ZM349.396 24.256C349.396 28.992 348.521 33.1733 346.772 36.8C345.065 40.384 342.527 43.1787 339.156 45.184C335.828 47.1893 331.711 48.192 326.804 48.192C322.025 48.192 317.929 47.232 314.516 45.312C311.145 43.3493 308.564 40.6187 306.772 37.12C304.98 33.5787 304.084 29.4613 304.084 24.768C304.084 21.4827 304.617 18.3893 305.684 15.488C306.751 12.5867 308.287 10.0267 310.292 7.808C312.297 5.58933 314.687 3.86133 317.46 2.624C320.276 1.344 323.391 0.703999 326.804 0.703999C331.583 0.703999 335.636 1.70667 338.964 3.712C342.335 5.67466 344.916 8.42666 346.708 11.968C348.5 15.4667 349.396 19.5627 349.396 24.256ZM394.856 33.536C394.856 33.8347 394.835 34.1547 394.792 34.496C394.749 34.7947 394.685 35.1147 394.6 35.456C394.301 37.3333 394.045 39.2533 393.832 41.216C393.661 43.136 393.405 45.0347 393.064 46.912C393.064 47.1253 392.979 47.3173 392.808 47.488C392.509 47.744 392.147 47.872 391.72 47.872C389.629 47.872 387.539 47.8507 385.448 47.808C383.357 47.7653 381.245 47.744 379.112 47.744C376.509 47.744 373.907 47.744 371.304 47.744C368.744 47.744 366.163 47.7867 363.56 47.872C362.109 47.9147 360.68 47.9573 359.272 48C357.864 48.0853 356.435 48.128 354.984 48.128C354.472 48.128 354.216 47.8293 354.216 47.232C354.216 46.6347 354.515 46.336 355.112 46.336C355.539 46.336 355.944 46.3573 356.328 46.4C356.755 46.4 357.16 46.4 357.544 46.4C358.141 46.4 358.739 46.2933 359.336 46.08C359.976 45.824 360.296 45.3547 360.296 44.672V6.848C360.296 5.99466 360.275 5.29066 360.232 4.736C360.189 4.13866 359.976 3.69066 359.592 3.392C359.251 3.09333 358.589 2.944 357.608 2.944C357.181 2.944 356.776 2.96533 356.392 3.008C356.008 3.05067 355.603 3.072 355.176 3.072C354.835 3.072 354.621 2.98667 354.536 2.816C354.451 2.60266 354.408 2.34666 354.408 2.048C354.408 1.792 354.429 1.57866 354.472 1.408C354.557 1.19466 354.749 1.088 355.048 1.088C356.456 1.088 357.843 1.10933 359.208 1.152C360.616 1.19467 362.024 1.216 363.432 1.216C365.053 1.216 366.696 1.19467 368.36 1.152C370.024 1.10933 371.667 1.088 373.288 1.088C373.587 1.088 373.757 1.19466 373.8 1.408C373.885 1.57866 373.928 1.77066 373.928 1.984C373.928 2.15466 373.885 2.368 373.8 2.624C373.757 2.83733 373.587 2.944 373.288 2.944C372.733 2.944 372.179 2.944 371.624 2.944C371.112 2.90133 370.579 2.88 370.024 2.88C369.341 2.88 368.659 2.96533 367.976 3.136C367.293 3.30666 366.952 3.84 366.952 4.736C366.952 6.22933 366.931 7.72267 366.888 9.216C366.888 10.7093 366.888 12.2027 366.888 13.696V32.576C366.888 34.4533 366.888 36.352 366.888 38.272C366.931 40.192 366.952 42.0907 366.952 43.968C366.952 44.6933 367.251 45.2267 367.848 45.568C368.445 45.8667 369.128 46.0373 369.896 46.08C370.664 46.1227 371.304 46.144 371.816 46.144C373.693 46.144 375.571 46.1013 377.448 46.016C379.325 45.9307 381.181 45.7387 383.016 45.44C384.211 45.2267 385.341 44.8213 386.408 44.224C387.517 43.584 388.477 42.7947 389.288 41.856C390.355 40.6187 391.165 39.296 391.72 37.888C392.275 36.4373 392.829 34.9867 393.384 33.536C393.512 33.2373 393.661 33.0667 393.832 33.024C394.003 32.9813 394.216 32.96 394.472 32.96C394.6 32.96 394.685 33.0453 394.728 33.216C394.813 33.344 394.856 33.4507 394.856 33.536ZM437.731 33.536C437.731 33.8347 437.71 34.1547 437.667 34.496C437.624 34.7947 437.56 35.1147 437.475 35.456C437.176 37.3333 436.92 39.2533 436.707 41.216C436.536 43.136 436.28 45.0347 435.939 46.912C435.939 47.1253 435.854 47.3173 435.683 47.488C435.384 47.744 435.022 47.872 434.595 47.872C432.504 47.872 430.414 47.8507 428.323 47.808C426.232 47.7653 424.12 47.744 421.987 47.744C419.384 47.744 416.782 47.744 414.179 47.744C411.619 47.744 409.038 47.7867 406.435 47.872C404.984 47.9147 403.555 47.9573 402.147 48C400.739 48.0853 399.31 48.128 397.859 48.128C397.347 48.128 397.091 47.8293 397.091 47.232C397.091 46.6347 397.39 46.336 397.987 46.336C398.414 46.336 398.819 46.3573 399.203 46.4C399.63 46.4 400.035 46.4 400.419 46.4C401.016 46.4 401.614 46.2933 402.211 46.08C402.851 45.824 403.171 45.3547 403.171 44.672V6.848C403.171 5.99466 403.15 5.29066 403.107 4.736C403.064 4.13866 402.851 3.69066 402.467 3.392C402.126 3.09333 401.464 2.944 400.483 2.944C400.056 2.944 399.651 2.96533 399.267 3.008C398.883 3.05067 398.478 3.072 398.051 3.072C397.71 3.072 397.496 2.98667 397.411 2.816C397.326 2.60266 397.283 2.34666 397.283 2.048C397.283 1.792 397.304 1.57866 397.347 1.408C397.432 1.19466 397.624 1.088 397.923 1.088C399.331 1.088 400.718 1.10933 402.083 1.152C403.491 1.19467 404.899 1.216 406.307 1.216C407.928 1.216 409.571 1.19467 411.235 1.152C412.899 1.10933 414.542 1.088 416.163 1.088C416.462 1.088 416.632 1.19466 416.675 1.408C416.76 1.57866 416.803 1.77066 416.803 1.984C416.803 2.15466 416.76 2.368 416.675 2.624C416.632 2.83733 416.462 2.944 416.163 2.944C415.608 2.944 415.054 2.944 414.499 2.944C413.987 2.90133 413.454 2.88 412.899 2.88C412.216 2.88 411.534 2.96533 410.851 3.136C410.168 3.30666 409.827 3.84 409.827 4.736C409.827 6.22933 409.806 7.72267 409.763 9.216C409.763 10.7093 409.763 12.2027 409.763 13.696V32.576C409.763 34.4533 409.763 36.352 409.763 38.272C409.806 40.192 409.827 42.0907 409.827 43.968C409.827 44.6933 410.126 45.2267 410.723 45.568C411.32 45.8667 412.003 46.0373 412.771 46.08C413.539 46.1227 414.179 46.144 414.691 46.144C416.568 46.144 418.446 46.1013 420.323 46.016C422.2 45.9307 424.056 45.7387 425.891 45.44C427.086 45.2267 428.216 44.8213 429.283 44.224C430.392 43.584 431.352 42.7947 432.163 41.856C433.23 40.6187 434.04 39.296 434.595 37.888C435.15 36.4373 435.704 34.9867 436.259 33.536C436.387 33.2373 436.536 33.0667 436.707 33.024C436.878 32.9813 437.091 32.96 437.347 32.96C437.475 32.96 437.56 33.0453 437.603 33.216C437.688 33.344 437.731 33.4507 437.731 33.536Z" fill="white"/>
</g>
<defs>
<filter id="filter0_d_15_134" x="0.466064" y="0.127991" width="441.265" height="56.192" filterUnits="userSpaceOnUse" color-interpolation-filters="sRGB">
<feFlood flood-opacity="0" result="BackgroundImageFix"/>
<feColorMatrix in="SourceAlpha" type="matrix" values="0 0 0 0 0 0 0 0 0 0 0 0 0 0 0 0 0 0 127 0" result="hardAlpha"/>
<feOffset dy="4"/>
<feGaussianBlur stdDeviation="2"/>
<feComposite in2="hardAlpha" operator="out"/>
<feColorMatrix type="matrix" values="0 0 0 0 0 0 0 0 0 0 0 0 0 0 0 0 0 0 0.25 0"/>
<feBlend mode="normal" in2="BackgroundImageFix" result="effect1_dropShadow_15_134"/>
<feBlend mode="normal" in="SourceGraphic" in2="effect1_dropShadow_15_134" result="shape"/>
</filter>
</defs>
</svg>
